<svg width="15" height="15" viewBox="0 0 15 15" fill="none" xmlns="http://www.w3.org/2000/svg">
<g clip-path="url(#clip0_103_31)">
<path d="M15 11.6175C14.7817 11.7 14.5407 11.6998 14.3225 11.6169C14.1043 11.534 13.924 11.3742 13.8156 11.1675L11.6594 8.18558L11.3469 7.7687L8.84501 11.1712C8.74312 11.3692 8.5726 11.5234 8.36532 11.6048C8.15804 11.6863 7.9282 11.6894 7.71876 11.6137L10.9425 7.2887L7.94376 3.38183C8.15938 3.30413 8.39519 3.3031 8.61148 3.37891C8.82778 3.45473 9.01134 3.60276 9.13126 3.79808L11.3663 6.81683L13.6138 3.81058C13.7164 3.61607 13.887 3.46607 14.093 3.3891C14.2991 3.31212 14.5262 3.31354 14.7313 3.39308L13.5675 4.93745L11.9913 6.98933C11.9475 7.02838 11.9125 7.07623 11.8885 7.12977C11.8645 7.1833 11.8521 7.24129 11.8521 7.29995C11.8521 7.35861 11.8645 7.41661 11.8885 7.47014C11.9125 7.52367 11.9475 7.57153 11.9913 7.61058L14.9938 11.6181L15 11.6175ZM0.0012575 7.23495L0.263758 5.93808C0.985008 3.3737 3.92501 2.30683 5.94751 3.89433C7.13188 4.82495 7.42751 6.14245 7.36938 7.62745H0.697508C0.589383 10.2793 2.50313 11.8806 4.95001 11.0625C5.34667 10.9197 5.70172 10.6807 5.98336 10.367C6.26499 10.0533 6.46441 9.67466 6.56376 9.26495C6.69313 8.8487 6.90626 8.77745 7.29751 8.89745C7.23231 9.40519 7.05282 9.89154 6.77255 10.3199C6.49228 10.7483 6.11852 11.1075 5.67938 11.3706C4.95402 11.7673 4.12177 11.9246 3.30165 11.8199C2.48152 11.7151 1.71551 11.3538 1.11313 10.7875C0.517526 10.1171 0.157555 9.27026 0.0881325 8.3762C0.0881325 8.22933 0.0381325 8.09183 0.0043825 7.95995C0.00134002 7.71851 -0.000118348 7.47704 7.49767e-06 7.23558L0.0012575 7.23495ZM0.705632 7.0562H6.73938C6.70188 5.1337 5.48876 3.76995 3.87063 3.75745C2.06938 3.73245 0.780633 5.0662 0.701258 7.04745L0.705632 7.0562Z" fill="#E34972"/>
</g>
<defs>
<clipPath id="clip0_103_31">
<rect width="15" height="15" fill="white"/>
</clipPath>
</defs>
</svg>
