<svg width="15" height="15" viewBox="0 0 15 15" fill="none" xmlns="http://www.w3.org/2000/svg">
<g clip-path="url(#clip0_103_29)">
<path d="M7.5 14.9725C7.28625 14.9725 7.0875 14.9169 6.90188 14.8207L5.00875 13.7344C4.72437 13.5832 4.86687 13.5282 4.9525 13.5007C5.33625 13.3769 5.4075 13.3494 5.80625 13.1288C5.84875 13.1013 5.90625 13.115 5.94875 13.1425L7.40062 13.9819C7.45687 14.0094 7.52875 14.0094 7.57125 13.9819L13.2506 10.8044C13.3069 10.7769 13.3356 10.7219 13.3356 10.6532V4.31191C13.3356 4.24316 13.3075 4.18816 13.2506 4.16066L7.57125 0.997537C7.51438 0.970037 7.44312 0.970037 7.40062 0.997537L1.72125 4.16066C1.66437 4.18816 1.63563 4.25691 1.63563 4.31191V10.6532C1.63563 10.7082 1.66437 10.7769 1.72125 10.8044L3.2725 11.6713C4.1125 12.0838 4.63875 11.6025 4.63875 11.1213V4.86254C4.63875 4.78004 4.71 4.69754 4.81 4.69754H5.53563C5.62125 4.69754 5.70625 4.76629 5.70625 4.86254V11.1207C5.70625 12.2075 5.09437 12.84 4.02687 12.84C3.69937 12.84 3.44313 12.84 2.7175 12.4963L1.22313 11.6713C1.04305 11.5723 0.892677 11.427 0.787529 11.2504C0.682382 11.0738 0.626274 10.8724 0.625 10.6669V4.32566C0.625 3.91316 0.8525 3.52816 1.22313 3.32191L6.9025 0.143787C7.0874 0.0489662 7.29221 -0.000488281 7.5 -0.000488281C7.70779 -0.000488281 7.9126 0.0489662 8.0975 0.143787L13.7775 3.32129C14.1475 3.52754 14.375 3.91254 14.375 4.32504V10.6663C14.375 11.0788 14.1475 11.4638 13.7775 11.6707L8.0975 14.8475C7.90892 14.9293 7.70554 14.9714 7.5 14.9713V14.9725ZM9.25062 10.6119C6.76 10.6119 6.2475 9.51191 6.2475 8.57629C6.2475 8.49379 6.31875 8.41129 6.41813 8.41129H7.15813C7.24375 8.41129 7.31438 8.46629 7.31438 8.54879C7.42875 9.27754 7.75625 9.63504 9.265 9.63504C10.4606 9.63504 10.9731 9.37379 10.9731 8.75504C10.9731 8.39754 10.8306 8.13629 8.96625 7.95754C7.41437 7.80566 6.44687 7.47629 6.44687 6.27941C6.44687 5.16504 7.41438 4.50441 9.0375 4.50441C10.8594 4.50441 11.7563 5.11004 11.87 6.43066C11.8687 6.47537 11.8537 6.5186 11.8269 6.55441C11.7988 6.58191 11.7562 6.60941 11.7131 6.60941H10.9731C10.9372 6.60854 10.9025 6.596 10.8743 6.57367C10.8461 6.55135 10.826 6.52045 10.8169 6.48566C10.6456 5.72941 10.2044 5.48129 9.0375 5.48129C7.7275 5.48129 7.57125 5.92129 7.57125 6.25129C7.57125 6.65066 7.75625 6.77441 9.52125 6.99441C11.2719 7.21441 12.0975 7.53066 12.0975 8.71316C12.0831 9.92441 11.0587 10.6119 9.25062 10.6119Z" fill="#E34972"/>
</g>
<defs>
<clipPath id="clip0_103_29">
<rect width="15" height="15" fill="white"/>
</clipPath>
</defs>
</svg>
