<svg width="15" height="15" viewBox="0 0 15 15" fill="none" xmlns="http://www.w3.org/2000/svg">
<path d="M8.58747 2.64373C8.06247 2.01873 7.60622 1.39373 7.51872 1.25623H7.49997C7.41247 1.38748 6.95622 2.01873 6.43122 2.64373C1.93122 8.38748 7.14372 12.2625 7.14372 12.2625L7.18747 12.2937C7.22497 12.8875 7.32497 13.75 7.32497 13.75H7.71247C7.71247 13.75 7.80622 12.8937 7.84372 12.2937L7.88747 12.2562C7.88747 12.2562 13.0875 8.38748 8.58747 2.64373ZM7.49997 12.175C7.39043 12.085 7.28996 11.9845 7.19997 11.875L7.49997 5.62498L7.78122 11.875C7.69691 11.9834 7.60276 12.0838 7.49997 12.175Z" fill="#E34972"/>
</svg>
