<svg width="15" height="15" viewBox="0 0 15 15" fill="none" xmlns="http://www.w3.org/2000/svg">
<path d="M0.234492 10.6005H0.715898V8.69938L1.46121 10.3568C1.5491 10.5574 1.66945 10.6283 1.90559 10.6283C2.14172 10.6283 2.2575 10.5574 2.34539 10.3568L3.0907 8.69938V10.6005H3.57211V8.70255C3.57211 8.51739 3.49805 8.42774 3.34523 8.38157C2.97949 8.26743 2.7341 8.36622 2.62301 8.61313L1.89164 10.2488L1.18348 8.61302C1.07695 8.36622 0.826992 8.26743 0.46125 8.38145C0.308438 8.42774 0.234375 8.51727 0.234375 8.70243L0.234492 10.6005ZM3.97254 9.05294H4.45383V10.1004C4.44938 10.1572 4.47211 10.2908 4.73578 10.295C4.87031 10.2971 5.7743 10.295 5.78273 10.295V9.04778H6.2652C6.26742 9.04778 6.26473 10.7486 6.26473 10.7557C6.2673 11.1752 5.7443 11.2663 5.50312 11.2733H3.98297V10.9494C3.98555 10.9494 5.50207 10.9497 5.50582 10.9493C5.81578 10.9166 5.7791 10.7626 5.77898 10.7108V10.5845H4.75582C4.2798 10.5801 3.97652 10.3724 3.97266 10.1333C3.97242 10.1114 3.98309 9.06348 3.97254 9.05294ZM6.63633 10.6005H8.02055C8.18262 10.6005 8.34012 10.5666 8.46504 10.5081C8.67328 10.4124 8.77512 10.2828 8.77512 10.1129V9.7611C8.77512 9.62223 8.65945 9.49251 8.43258 9.40626C8.31223 9.35985 8.16398 9.33536 8.02043 9.33536H7.43707C7.24266 9.33536 7.15008 9.27677 7.12699 9.14716C7.12242 9.13169 7.12242 9.11938 7.12242 9.10391V8.88477C7.12242 8.87247 7.12242 8.86005 7.12699 8.8447C7.15008 8.74591 7.20105 8.71813 7.37238 8.70266L7.41867 8.69962H8.79363V8.37876H7.44188C7.24746 8.37876 7.14563 8.39106 7.05305 8.41884C6.76605 8.50837 6.6409 8.65028 6.6409 8.8972V9.17798C6.6409 9.39407 6.88641 9.57923 7.29832 9.62247C7.34473 9.6254 7.3909 9.62868 7.43719 9.62868H7.93723C7.95574 9.62868 7.97426 9.62868 7.9882 9.63161C8.14102 9.64391 8.2057 9.6718 8.25211 9.72723C8.264 9.73822 8.27344 9.75159 8.2798 9.76647C8.28616 9.78136 8.2893 9.79742 8.28902 9.8136V10.0945C8.28902 10.1284 8.26594 10.1716 8.21965 10.2086C8.17805 10.2457 8.10855 10.2704 8.01598 10.2766L7.965 10.2797H6.63633V10.6005ZM11.7786 10.042C11.7786 10.3721 12.024 10.5573 12.5193 10.5944C12.5655 10.5975 12.6118 10.6005 12.6581 10.6005H13.9127V10.2797H12.649C12.3666 10.2797 12.2602 10.2086 12.2602 10.0388V8.37852H11.7788L11.7786 10.042ZM9.08238 10.0586V8.91431C9.08238 8.62368 9.28652 8.44731 9.69012 8.39165C9.73312 8.38548 9.77651 8.38239 9.81996 8.38239H10.7339C10.7803 8.38239 10.822 8.38544 10.8683 8.39165C11.2719 8.44731 11.4762 8.62356 11.4762 8.91431V10.0586C11.4762 10.2947 11.3895 10.4208 11.1896 10.503L11.664 10.9311H11.1049L10.7212 10.5847L10.335 10.6092H9.81996C9.72428 10.6086 9.62913 10.5951 9.53707 10.569C9.23086 10.4856 9.08238 10.3247 9.08238 10.0586ZM9.60211 10.0309C9.60211 10.0463 9.60668 10.0619 9.61137 10.0804C9.63914 10.2134 9.76453 10.2876 9.95461 10.2876H10.392L9.99023 9.92493H10.5493L10.8996 10.2413C10.9643 10.2068 11.0067 10.1543 11.0216 10.0866C11.0262 10.0712 11.0262 10.0557 11.0262 10.0402V8.94243C11.0262 8.93013 11.0262 8.91454 11.0216 8.89907C10.9937 8.77532 10.8684 8.70431 10.6829 8.70431H9.95449C9.74121 8.70431 9.60199 8.79712 9.60199 8.94243V10.0309H9.60211ZM14.3362 7.84591C14.0404 7.83782 13.8143 7.86536 13.6209 7.94681C13.566 7.97001 13.4784 7.97059 13.4695 8.03938C13.4996 8.07114 13.5043 8.11837 13.5284 8.15727C13.5745 8.23192 13.6525 8.332 13.722 8.38438C13.7978 8.44169 13.8761 8.50309 13.9576 8.55278C14.1023 8.64114 14.2641 8.69153 14.4036 8.77989C14.4858 8.83216 14.5673 8.89778 14.6476 8.95673C14.6873 8.98567 14.7138 9.03102 14.7655 9.04919V9.04087C14.7384 9.00641 14.7314 8.95907 14.7066 8.92298L14.5971 8.81352C14.4901 8.67149 14.3544 8.54692 14.2099 8.44333C14.0948 8.36071 13.8373 8.24903 13.7892 8.11509L13.7808 8.10677C13.8623 8.09751 13.958 8.06798 14.0332 8.04782C14.1598 8.01384 14.2729 8.02263 14.4035 7.98888L14.5802 7.93825V7.90474C14.5143 7.837 14.467 7.74723 14.3951 7.68595C14.2068 7.52552 14.001 7.3652 13.7892 7.23138C13.6718 7.15731 13.5266 7.10915 13.402 7.04634C13.3603 7.02513 13.2867 7.01423 13.2589 6.97895C13.1934 6.89563 13.1579 6.79005 13.1074 6.6929C12.9996 6.48303 12.8985 6.26971 12.8045 6.05329C12.7407 5.90739 12.699 5.76348 12.6195 5.63259C12.2373 5.00434 11.826 4.62513 11.1888 4.25247C11.0532 4.17313 10.89 4.14196 10.7176 4.10106L10.4399 4.08419C10.3835 4.06063 10.3247 3.99149 10.2716 3.95798C10.0604 3.82462 9.51902 3.53458 9.36269 3.91602C9.26402 4.15673 9.51035 4.39157 9.59836 4.51356C9.66012 4.59911 9.73934 4.69497 9.78352 4.79118C9.81258 4.85446 9.8175 4.91786 9.84246 4.98477C9.90352 5.14954 9.95684 5.32895 10.0359 5.48118C10.0759 5.55829 10.1201 5.6395 10.1706 5.70841C10.2015 5.75059 10.2547 5.76934 10.263 5.83462C10.2111 5.90727 10.2081 6.02024 10.1789 6.11223C10.0474 6.52696 10.097 7.04247 10.2884 7.34938C10.3471 7.44372 10.4854 7.64575 10.6754 7.56817C10.8417 7.50044 10.8047 7.29056 10.8523 7.10528C10.863 7.06345 10.8564 7.03251 10.8775 7.00438V7.01282L11.029 7.31575C11.1411 7.49634 11.34 7.68489 11.5086 7.81227C11.5961 7.87825 11.665 7.99251 11.7779 8.03106V8.02251H11.7696C11.7476 7.98841 11.7135 7.97434 11.6854 7.94681C11.6195 7.88224 11.5463 7.80208 11.4919 7.72802C11.3385 7.51989 11.203 7.29196 11.0795 7.05477C11.0205 6.94157 10.9693 6.81665 10.9196 6.70134C10.9004 6.65692 10.9007 6.58966 10.8608 6.56681C10.8062 6.65118 10.7262 6.7195 10.684 6.81923C10.6167 6.9786 10.608 7.17302 10.5831 7.37458L10.5662 7.3829C10.4489 7.35466 10.4078 7.23395 10.3642 7.13048C10.254 6.8688 10.2335 6.44727 10.3305 6.14598C10.3556 6.06794 10.4689 5.82243 10.423 5.75036C10.4011 5.67852 10.3288 5.63704 10.2885 5.58196C10.2356 5.50826 10.1905 5.42929 10.1538 5.3463C10.0636 5.14227 10.0215 4.91317 9.92672 4.70681C9.88125 4.60813 9.80461 4.50841 9.74156 4.42075C9.67184 4.32348 9.59367 4.252 9.53953 4.13458C9.52031 4.09286 9.49418 4.02595 9.52266 3.98305C9.53168 3.95411 9.54469 3.94204 9.57328 3.93255C9.62203 3.89493 9.75797 3.94509 9.80883 3.96618C9.94383 4.02231 10.0564 4.07563 10.1708 4.15134C10.2257 4.18778 10.2811 4.25809 10.3475 4.27755H10.4232C10.5417 4.30473 10.6745 4.28587 10.7851 4.3195C10.9808 4.37903 11.1561 4.47149 11.3153 4.57204C11.8003 4.87837 12.1968 5.3143 12.4682 5.83438C12.5118 5.91817 12.5307 5.99798 12.5691 6.08681C12.6466 6.26587 12.7444 6.4502 12.8215 6.6254C12.8985 6.80013 12.9736 6.97649 13.0825 7.12192C13.1396 7.19833 13.3607 7.23934 13.4611 7.28177C13.5315 7.31153 13.6468 7.34259 13.7135 7.38266C13.8409 7.45954 13.9644 7.55106 14.0838 7.6352C14.1435 7.67763 14.3271 7.76985 14.3362 7.84591ZM10.5746 4.63977C10.5236 4.63894 10.4727 4.64461 10.4231 4.65665V4.66497H10.4316C10.461 4.72555 10.5129 4.76446 10.5493 4.81649L10.6336 4.99321L10.6419 4.98489C10.6941 4.94821 10.7179 4.8895 10.7176 4.79973C10.6966 4.7777 10.6936 4.75016 10.6755 4.72403C10.6516 4.68888 10.605 4.66919 10.5746 4.63977Z" fill="#E34972"/>
</svg>
