<svg width="15" height="15" viewBox="0 0 15 15" fill="none" xmlns="http://www.w3.org/2000/svg">
<g clip-path="url(#clip0_103_39)">
<path d="M8.8319 0.0294189C8.72377 0.0294189 8.62315 0.0525439 8.53002 0.0837939C8.72752 0.215044 8.83627 0.390044 8.89002 0.587544C8.8944 0.614419 8.9019 0.633794 8.90565 0.660669C8.91029 0.683738 8.913 0.707151 8.91377 0.730669C8.92877 1.07129 8.8244 1.11442 8.75127 1.31567C8.63877 1.57504 8.67002 1.85379 8.80502 2.07817C8.81739 2.10826 8.83289 2.13696 8.85127 2.16379C8.7044 1.18379 9.5219 1.03692 9.67252 0.730669C9.6844 0.463169 9.46377 0.285044 9.2894 0.161294C9.15237 0.0751871 8.99374 0.0296788 8.8319 0.0300439V0.0294189ZM10.0638 0.250044C10.0488 0.339419 10.06 0.316294 10.0563 0.362544C10.0525 0.393794 10.0525 0.432544 10.0488 0.463169C10.0406 0.494419 10.0331 0.525669 10.0213 0.556294C10.0138 0.587544 10.0025 0.618794 9.99002 0.649419L9.94815 0.738169C9.93565 0.753794 9.92877 0.769419 9.9169 0.785044L9.89377 0.819419C9.87534 0.845942 9.85595 0.871792 9.83565 0.896919C9.81252 0.920669 9.79315 0.947544 9.76565 0.966919V0.970669C9.74252 0.990044 9.7194 1.01317 9.6919 1.03317C9.61065 1.09504 9.51815 1.14129 9.43252 1.19942C9.40565 1.21817 9.37815 1.23442 9.35502 1.25754C9.32873 1.27604 9.30406 1.29674 9.28127 1.31942C9.2544 1.34254 9.23502 1.36567 9.2119 1.39317C9.19252 1.41629 9.1694 1.44317 9.15377 1.47067C9.13432 1.49684 9.11617 1.52396 9.0994 1.55192C9.08377 1.58317 9.07252 1.61004 9.0569 1.64067C9.04502 1.67192 9.03377 1.69879 9.02565 1.73004C9.0154 1.76196 9.00643 1.79428 8.99877 1.82692C8.99502 1.84254 8.99502 1.86192 8.99127 1.87692C8.9869 1.89254 8.9869 1.90817 8.98315 1.92379C8.98315 1.95504 8.9794 1.98942 8.9794 2.02067C8.9794 2.04379 8.9794 2.06692 8.98315 2.09004C8.98315 2.12129 8.9869 2.15254 8.99502 2.18692C8.99877 2.21817 9.00627 2.24942 9.01377 2.28067C9.02627 2.31129 9.03377 2.34192 9.04502 2.37317C9.05315 2.39192 9.0644 2.41192 9.07252 2.42754L8.18127 2.08254C8.03065 2.04004 7.88315 2.00129 7.7319 1.96629L7.48815 1.90817C7.25565 1.86192 7.0194 1.82692 6.78315 1.80379C6.77502 1.80379 6.77127 1.80004 6.76377 1.80004C6.36456 1.76005 5.96264 1.75483 5.56252 1.78442C5.32627 1.80004 5.09002 1.83067 4.85377 1.86942C4.6782 1.89967 4.50373 1.93594 4.33065 1.97817L4.15627 2.02442C4.09877 2.04754 4.04377 2.07442 3.99002 2.09817L3.8619 2.15629C3.8544 2.16004 3.8469 2.16004 3.84315 2.16379C3.80377 2.18317 3.7694 2.19879 3.7344 2.21817C3.68407 2.24037 3.63485 2.26498 3.5869 2.29192C3.56002 2.30317 3.53315 2.31879 3.5094 2.33067C3.4983 2.33756 3.48682 2.34382 3.47502 2.34942C3.44002 2.36942 3.40502 2.38879 3.37377 2.40817C3.34188 2.4258 3.311 2.44521 3.28127 2.46629C3.25377 2.48504 3.2269 2.50067 3.20377 2.52004C3.20002 2.52442 3.19565 2.52442 3.1919 2.52817C3.16877 2.54379 3.1419 2.56317 3.11815 2.58254L3.11065 2.59004L3.05252 2.63629C3.04502 2.64067 3.0369 2.64817 3.0294 2.65192C3.01002 2.66754 2.99065 2.68692 2.97127 2.70192C2.96752 2.71004 2.9594 2.71442 2.95565 2.71754C2.93252 2.74129 2.9094 2.76067 2.88627 2.78379C2.8819 2.78379 2.8819 2.78754 2.87815 2.79129C2.85406 2.81235 2.83091 2.83445 2.80877 2.85754C2.8044 2.86129 2.8044 2.86504 2.80065 2.86504C2.78031 2.88496 2.76091 2.90581 2.74252 2.92754C2.73502 2.93504 2.72377 2.94254 2.71565 2.95004C2.69489 2.9746 2.67277 2.99797 2.6494 3.02004C2.64565 3.02754 2.63815 3.03192 2.6344 3.03879C2.60315 3.07004 2.57627 3.10129 2.54502 3.13254L2.53377 3.14379C2.47127 3.21004 2.40565 3.27567 2.33565 3.33379C2.26627 3.39629 2.19252 3.45379 2.11877 3.50442C1.9707 3.61019 1.81088 3.69849 1.64252 3.76754C1.56127 3.80254 1.47565 3.83379 1.39065 3.86067C1.22815 3.89567 1.06127 3.96129 0.918148 3.97317C0.886898 3.97317 0.852523 3.98067 0.821273 3.98442L0.724398 4.00754L0.631273 4.04254C0.600023 4.05442 0.569398 4.07004 0.538773 4.08504C0.511273 4.10442 0.480648 4.12004 0.453148 4.13942C0.425573 4.15938 0.399655 4.18153 0.375648 4.20567C0.348773 4.22442 0.321273 4.25192 0.298148 4.27504C0.275023 4.30192 0.251898 4.32504 0.232523 4.35254C0.213148 4.38379 0.190023 4.41067 0.174398 4.44192C0.154041 4.47008 0.135863 4.49974 0.120023 4.53067C0.104398 4.56567 0.0887734 4.59692 0.0775234 4.63129C0.0656484 4.66254 0.0543984 4.69754 0.0425234 4.73192C0.0350234 4.76317 0.0268984 4.79442 0.0237734 4.82567C0.0237734 4.82879 0.0193984 4.83317 0.0193984 4.83692C0.0118984 4.87192 0.0118984 4.91817 0.00752337 4.94129C0.00377337 4.96879 2.33714e-05 4.99129 2.33714e-05 5.01879C-0.000695702 5.08619 0.0151883 5.15274 0.0462734 5.21254V5.21629C0.0581484 5.23942 0.0737734 5.26317 0.0893984 5.28629C0.104398 5.30942 0.120648 5.33254 0.139398 5.35567C0.158773 5.37504 0.181898 5.39879 0.205648 5.41817C0.228232 5.44082 0.252694 5.46152 0.278773 5.48004C0.371898 5.56129 0.395023 5.58817 0.515023 5.65004C0.534398 5.66192 0.553773 5.66942 0.577523 5.68129C0.581273 5.68129 0.585023 5.68504 0.588773 5.68504C0.588773 5.69317 0.588773 5.69692 0.592523 5.70442C0.601571 5.7683 0.618361 5.83084 0.642523 5.89067C0.655023 5.91379 0.662523 5.93692 0.673773 5.96004C0.678148 5.96817 0.681898 5.97567 0.686273 5.97942C0.701273 6.01067 0.716898 6.03754 0.731898 6.06504L0.790023 6.14629C0.809398 6.16942 0.833148 6.19629 0.856273 6.22004C0.879398 6.24317 0.902523 6.26254 0.930023 6.28567C0.930023 6.28567 0.933773 6.28942 0.937523 6.28942C0.960648 6.30879 0.983773 6.32817 1.00752 6.34379C1.03448 6.3627 1.0629 6.37942 1.09252 6.39379C1.1194 6.40942 1.15065 6.42504 1.18127 6.43692C1.20625 6.44819 1.23219 6.45718 1.25877 6.46379C1.26315 6.46754 1.2669 6.46754 1.2744 6.47129C1.29002 6.47567 1.3094 6.47942 1.3244 6.48317C1.31315 6.69254 1.3094 6.88942 1.34065 6.95942C1.37502 7.03692 1.54565 6.80067 1.71565 6.52942C1.69315 6.79692 1.67752 7.11067 1.71565 7.20379C1.75877 7.30067 1.99065 6.99817 2.19252 6.66504C4.9394 6.03004 7.44565 7.92754 7.70877 10.6088C7.65877 10.19 7.14315 9.95817 6.9069 10.0163C6.79065 10.3025 6.59315 10.6707 6.27565 10.8994C6.30252 10.6432 6.29127 10.3807 6.2369 10.1244C6.15014 10.4811 5.98606 10.8144 5.75627 11.1007C5.38877 11.1275 5.02065 10.9494 4.8269 10.6819C4.81127 10.6707 4.80752 10.6475 4.79565 10.6319C4.7844 10.605 4.77252 10.5775 4.7644 10.5507C4.75315 10.5247 4.74538 10.4974 4.74127 10.4694C4.73752 10.4419 4.73752 10.415 4.73752 10.3838V10.3257C4.74215 10.2982 4.74862 10.271 4.7569 10.2444C4.76502 10.2175 4.77252 10.1907 4.7844 10.1632C4.7994 10.1363 4.81127 10.1088 4.83065 10.0819C4.89627 9.89567 4.89627 9.74442 4.77627 9.65567C4.75297 9.64046 4.72827 9.62748 4.70252 9.61692C4.68752 9.61317 4.66815 9.60567 4.65252 9.60129L4.62127 9.59004C4.59474 9.58146 4.56757 9.57498 4.54002 9.57067C4.51363 9.56294 4.48628 9.55895 4.45877 9.55879C4.43064 9.55438 4.40224 9.55187 4.37377 9.55129C4.3544 9.55129 4.33502 9.55504 4.31565 9.55504C4.28669 9.55488 4.25785 9.55888 4.23002 9.56692C4.20315 9.57067 4.17627 9.57442 4.14877 9.58192C4.12113 9.58933 4.09399 9.59852 4.06752 9.60942C4.04065 9.62067 4.01752 9.63254 3.99002 9.64442C3.9669 9.65567 3.94377 9.67129 3.91627 9.68317C3.01377 10.2719 3.55252 11.6507 4.16815 12.05C3.93565 12.0925 3.6994 12.1425 3.63377 12.1932L3.62565 12.2007C3.79252 12.3013 3.9669 12.3869 4.14877 12.4607C4.3969 12.5419 4.66002 12.615 4.77627 12.6463V12.65C5.09723 12.716 5.42545 12.7395 5.75252 12.72C7.46877 12.6 8.87502 11.2944 9.13065 9.57442L9.15377 9.67504C9.16565 9.74504 9.18065 9.81879 9.18877 9.89192V9.89567C9.19627 9.93067 9.20002 9.96567 9.2044 9.99692V10.0119C9.20815 10.0469 9.2119 10.0819 9.2119 10.1132C9.21565 10.1557 9.2194 10.1982 9.2194 10.2407V10.3032C9.2194 10.3219 9.22377 10.345 9.22377 10.3644C9.22377 10.3882 9.2194 10.4113 9.2194 10.4344V10.4888C9.2194 10.5157 9.21565 10.5388 9.21565 10.5663C9.21565 10.5819 9.21565 10.5975 9.2119 10.6163C9.2119 10.6438 9.20815 10.6707 9.20815 10.7019C9.2044 10.7132 9.2044 10.725 9.2044 10.7363L9.1919 10.8257C9.1919 10.8375 9.1919 10.8488 9.18877 10.8607C9.1844 10.8994 9.1769 10.9344 9.17315 10.9732V10.9807L9.15002 11.0894V11.1007L9.1269 11.205C9.1269 11.2094 9.12252 11.2175 9.12252 11.2207C9.1154 11.2561 9.10643 11.2912 9.09565 11.3257V11.3369C9.08377 11.3757 9.07252 11.4107 9.0644 11.4457C9.06065 11.4494 9.06065 11.4532 9.06065 11.4532L9.02565 11.5694C9.01065 11.6082 8.99877 11.6432 8.98315 11.6819C8.96752 11.7207 8.95627 11.7594 8.94065 11.7944C8.92502 11.8332 8.9094 11.8675 8.8944 11.9069H8.89002C8.87502 11.9413 8.85877 11.98 8.84002 12.015C8.83677 12.0243 8.8328 12.0333 8.82815 12.0419C8.8244 12.0457 8.8244 12.05 8.82065 12.0538C8.56445 12.5667 8.19155 13.0124 7.7319 13.355C7.70065 13.3744 7.67002 13.3982 7.63877 13.4213C7.63127 13.4288 7.62002 13.4325 7.6119 13.44C7.58419 13.4605 7.55585 13.4801 7.5269 13.4988L7.53815 13.5219H7.54252L7.70502 13.4988H7.70877C7.8094 13.4832 7.91002 13.4638 8.01065 13.4444C8.03815 13.4407 8.06877 13.4325 8.09627 13.425L8.15065 13.4132C8.17752 13.4094 8.2044 13.4019 8.2319 13.3982C8.25502 13.39 8.27815 13.3857 8.30127 13.3788C8.68877 13.285 9.0644 13.1575 9.42502 13.0069C8.80242 13.8549 7.97439 14.5307 7.01877 14.9707C7.46502 14.9394 7.91002 14.8663 8.34002 14.7419C9.89641 14.2843 11.2109 13.234 12.0006 11.8169C11.8411 12.714 11.4854 13.5647 10.9588 14.3082C11.3342 14.0605 11.6811 13.7721 11.9931 13.4482C12.8602 12.5429 13.4295 11.394 13.6244 10.1557C13.7556 10.7682 13.7944 11.3994 13.7369 12.0225C16.5331 8.12192 13.9688 4.07754 12.8956 3.01254C12.8919 3.00442 12.8881 3.00067 12.8881 2.99317C12.8844 2.99692 12.8844 2.99692 12.8844 3.00067C12.8844 2.99692 12.8844 2.99692 12.88 2.99317C12.88 3.03942 12.8763 3.08567 12.8725 3.13254C12.8618 3.21931 12.8489 3.3058 12.8338 3.39192C12.815 3.47692 12.7913 3.56254 12.7681 3.64817C12.7406 3.72942 12.71 3.81442 12.6744 3.89567C12.639 3.97591 12.6004 4.05472 12.5588 4.13192C12.4723 4.28377 12.3725 4.42767 12.2606 4.56192C12.2025 4.63129 12.1406 4.69317 12.0781 4.75567C12.0416 4.78907 12.0041 4.82137 11.9656 4.85254L11.8769 4.93004C11.8077 4.98462 11.7353 5.03493 11.66 5.08067C11.586 5.12835 11.5096 5.17236 11.4313 5.21254C11.35 5.25129 11.2688 5.28629 11.1875 5.32129C11.022 5.38424 10.8508 5.43091 10.6763 5.46067C10.5869 5.47629 10.4981 5.48379 10.4125 5.49192C10.3507 5.49629 10.2888 5.49879 10.2269 5.49942C10.1388 5.4982 10.0508 5.49299 9.96315 5.48379C9.87466 5.47685 9.78675 5.4639 9.70002 5.44504C9.61217 5.4291 9.52551 5.40718 9.44065 5.37942H9.43627C9.5219 5.37129 9.6069 5.36379 9.69252 5.34817C9.86695 5.31793 10.0381 5.27126 10.2038 5.20879C10.2888 5.17754 10.37 5.13879 10.4475 5.10004C10.5288 5.06129 10.6025 5.01879 10.68 4.97254C10.7538 4.92254 10.8269 4.87192 10.8969 4.81754C10.9669 4.76317 11.0325 4.70504 11.0944 4.64317C11.16 4.58504 11.2181 4.51942 11.2763 4.45317C11.3344 4.38379 11.3888 4.31379 11.4388 4.24442C11.4469 4.23254 11.455 4.21692 11.4625 4.20567C11.5013 4.14317 11.54 4.08129 11.575 4.01942C11.6604 3.86525 11.7303 3.703 11.7838 3.53504C11.8113 3.45379 11.8306 3.36879 11.85 3.28317C11.8656 3.19442 11.8813 3.10942 11.8888 3.02379C11.8963 2.93504 11.9044 2.84567 11.9044 2.76067C11.9044 2.69817 11.9 2.63629 11.8963 2.57442C11.8885 2.48766 11.8781 2.40116 11.865 2.31504C11.85 2.22773 11.8308 2.14117 11.8075 2.05567C11.78 1.97442 11.7531 1.88879 11.7219 1.80754C11.6906 1.72629 11.6525 1.64504 11.6138 1.56754C11.5706 1.49004 11.5281 1.41254 11.4819 1.33879C11.4324 1.26639 11.3807 1.19552 11.3269 1.12629C11.2688 1.06004 11.2106 0.993794 11.1488 0.928169C11.1162 0.894917 11.0826 0.862612 11.0481 0.831294C10.8731 0.695669 10.6919 0.568169 10.5094 0.451919C10.4844 0.437461 10.4585 0.424521 10.4319 0.413169C10.317 0.342815 10.1932 0.287538 10.0638 0.250044Z" fill="#E34972"/>
</g>
<defs>
<clipPath id="clip0_103_39">
<rect width="15" height="15" fill="white"/>
</clipPath>
</defs>
</svg>
