<svg width="15" height="15" viewBox="0 0 15 15" fill="none" xmlns="http://www.w3.org/2000/svg">
<path d="M9.98437 4C9.94708 4 9.91131 4.01482 9.88494 4.04119C9.85857 4.06756 9.84375 4.10333 9.84375 4.14063V6.71734L9.25969 6.37656C9.22363 6.35524 9.18251 6.34399 9.14062 6.34399C9.09874 6.34399 9.05762 6.35524 9.02156 6.37656L7.61813 7.195C7.58224 7.21572 7.55244 7.2455 7.53171 7.28138C7.51097 7.31725 7.50004 7.35794 7.5 7.39938V9.03812C7.5 9.1225 7.545 9.20031 7.61813 9.2425L9.02156 10.0609C9.05762 10.0823 9.09874 10.0935 9.14062 10.0935C9.18251 10.0935 9.22363 10.0823 9.25969 10.0609L10.6631 9.2425C10.699 9.22178 10.7288 9.192 10.7495 9.15612C10.7703 9.12025 10.7812 9.07956 10.7812 9.03812V4.57656C10.7811 4.53568 10.7703 4.49554 10.75 4.46011C10.7296 4.42467 10.7003 4.39518 10.665 4.37453L10.0542 4.01922C10.0332 4.0068 10.0093 4.00017 9.98484 4H9.98437ZM5.39062 6.34469C5.34882 6.34463 5.30775 6.35563 5.27156 6.37656L3.86812 7.195C3.83224 7.21572 3.80244 7.2455 3.78171 7.28138C3.76097 7.31725 3.75004 7.35794 3.75 7.39938V9.03812C3.75 9.1225 3.795 9.20031 3.86812 9.2425L5.27156 10.0609C5.34516 10.1031 5.43562 10.1031 5.50969 10.0609L6.91313 9.2425C6.94901 9.22178 6.97881 9.192 6.99954 9.15612C7.02028 9.12025 7.03121 9.07956 7.03125 9.03812V7.39938C7.03131 7.35792 7.02041 7.31719 6.99967 7.2813C6.97893 7.24542 6.94907 7.21564 6.91313 7.195L5.50969 6.37656C5.4735 6.35563 5.43243 6.34463 5.39062 6.34469ZM12.8906 6.34469C12.8488 6.34448 12.8077 6.35548 12.7716 6.37656L11.3681 7.195C11.3322 7.21572 11.3024 7.2455 11.2817 7.28138C11.261 7.31725 11.25 7.35794 11.25 7.39938V9.03812C11.25 9.1225 11.295 9.20031 11.3681 9.2425L12.7294 10.0652C12.7654 10.087 12.8066 10.0987 12.8486 10.099C12.8907 10.0994 12.9321 10.0883 12.9684 10.067L13.6378 9.67797C13.6536 9.66869 13.6666 9.65547 13.6757 9.6396C13.6847 9.62373 13.6895 9.60578 13.6895 9.5875C13.6895 9.56923 13.6847 9.55127 13.6757 9.5354C13.6666 9.51953 13.6536 9.50631 13.6378 9.49703L12.1875 8.6425V7.80156L12.8906 7.39234L13.5938 7.80156V8.3875C13.5938 8.46578 13.6594 8.47797 13.7034 8.45172C13.9404 8.31337 14.1776 8.1754 14.415 8.03781C14.4503 8.0172 14.4796 7.98771 14.5 7.95227C14.5204 7.91683 14.5312 7.87667 14.5312 7.83578V7.39984C14.5313 7.35839 14.5204 7.31766 14.4997 7.28177C14.4789 7.24588 14.4491 7.21611 14.4131 7.19547L13.0097 6.37703C12.9735 6.35602 12.9324 6.34501 12.8906 6.34516V6.34469ZM1.64062 6.34563C1.5988 6.34541 1.55769 6.35642 1.52156 6.3775L0.118125 7.195C0.0822014 7.2159 0.0523884 7.24587 0.031661 7.28189C0.0109337 7.31792 1.6843e-05 7.35875 0 7.40031V9.49234C0 9.59453 0.110625 9.65781 0.19875 9.60672L0.82125 9.24438C0.856604 9.22369 0.885933 9.19412 0.906325 9.1586C0.926718 9.12307 0.937465 9.08284 0.9375 9.04188V7.80297L1.64062 7.39281L2.34375 7.80297V9.04188C2.34382 9.08277 2.35459 9.12293 2.37498 9.15837C2.39537 9.19381 2.42468 9.2233 2.46 9.24391L3.0825 9.60672C3.1026 9.61843 3.12543 9.62464 3.1487 9.6247C3.17196 9.62476 3.19483 9.61869 3.21499 9.60708C3.23516 9.59548 3.2519 9.57876 3.26354 9.55861C3.27517 9.53847 3.28128 9.51561 3.28125 9.49234V7.40031C3.28123 7.35875 3.27032 7.31792 3.24959 7.28189C3.22886 7.24587 3.19905 7.2159 3.16313 7.195L1.75969 6.3775C1.72356 6.35642 1.68245 6.34541 1.64062 6.34563ZM9.14062 7.39188L9.84375 7.80203V8.63547L9.14062 9.04563L8.4375 8.63547V7.80156L9.14062 7.39141V7.39188ZM12.8906 7.75188L12.4889 7.98625V8.45406L12.8906 8.6875L13.2923 8.45406V7.98625L12.8906 7.75188ZM7.22156 9.62406C7.17287 9.62379 7.12492 9.63606 7.08234 9.65969L5.76422 10.4219C5.7218 10.4459 5.68655 10.4808 5.66208 10.523C5.63761 10.5652 5.62482 10.6131 5.625 10.6619V12.1834C5.625 12.2814 5.67984 12.3738 5.76422 12.4234L6.11109 12.6213C6.2775 12.7033 6.33891 12.7033 6.41438 12.7033C6.66281 12.7033 6.80437 12.5547 6.80437 12.2922V10.7889C6.8045 10.7838 6.8036 10.7787 6.80172 10.7739C6.79985 10.7691 6.79704 10.7648 6.79345 10.7611C6.78987 10.7574 6.78559 10.7545 6.78087 10.7525C6.77614 10.7506 6.77107 10.7495 6.76594 10.7495H6.59906C6.58862 10.7495 6.5786 10.7537 6.57122 10.7611C6.56384 10.7684 6.55969 10.7785 6.55969 10.7889V12.2922C6.55969 12.4061 6.43922 12.5233 6.24281 12.4253L5.88188 12.2172C5.87599 12.2135 5.87111 12.2084 5.86767 12.2023C5.86424 12.1963 5.86235 12.1895 5.86219 12.1825V10.6609C5.86219 10.6473 5.86875 10.6314 5.88234 10.6244L7.20047 9.86453C7.20678 9.86104 7.21388 9.85921 7.22109 9.85921C7.22831 9.85921 7.2354 9.86104 7.24172 9.86453L8.56125 10.6239C8.57484 10.6314 8.58141 10.645 8.58141 10.6609V12.1825C8.58137 12.1898 8.57951 12.197 8.57599 12.2034C8.57247 12.2097 8.5674 12.2151 8.56125 12.2191L7.24172 12.9817C7.2354 12.9852 7.22831 12.987 7.22109 12.987C7.21388 12.987 7.20678 12.9852 7.20047 12.9817L6.86391 12.7811C6.85453 12.7764 6.84047 12.7741 6.83156 12.7788C6.76988 12.8183 6.70298 12.8491 6.63281 12.8702C6.60984 12.8772 6.57891 12.8913 6.645 12.9278L7.08234 13.188C7.12511 13.2112 7.17288 13.2238 7.22156 13.2245C7.27006 13.225 7.3177 13.2117 7.35891 13.1861L8.6775 12.4234C8.71992 12.3994 8.75517 12.3645 8.77964 12.3223C8.8041 12.2801 8.8169 12.2322 8.81672 12.1834V10.6619C8.8161 10.6133 8.80297 10.5657 8.77858 10.5236C8.7542 10.4816 8.71938 10.4465 8.6775 10.4219L7.35891 9.66016C7.31705 9.63642 7.26968 9.62413 7.22156 9.62453V9.62406ZM9.27797 10.3263C9.24473 10.3263 9.21182 10.3329 9.18114 10.3457C9.15045 10.3585 9.12258 10.3772 9.09912 10.4007C9.05174 10.4483 9.02519 10.5127 9.02531 10.5798C9.02544 10.647 9.05222 10.7113 9.09978 10.7587C9.14734 10.8061 9.21177 10.8326 9.27891 10.8325C9.34604 10.8324 9.41037 10.8056 9.45776 10.758C9.50514 10.7105 9.53169 10.646 9.53156 10.5789C9.53144 10.5118 9.50465 10.4474 9.45709 10.4001C9.40953 10.3527 9.3451 10.3261 9.27797 10.3263ZM9.27516 10.3666C9.39422 10.3666 9.49078 10.4603 9.49078 10.5789C9.48993 10.6358 9.46695 10.6902 9.42669 10.7304C9.38643 10.7707 9.33208 10.7937 9.27516 10.7945C9.21855 10.7939 9.1645 10.7709 9.12486 10.7304C9.08523 10.69 9.06325 10.6355 9.06375 10.5789C9.06356 10.551 9.0689 10.5234 9.07945 10.4976C9.08999 10.4719 9.10554 10.4484 9.1252 10.4287C9.14485 10.4089 9.16822 10.3933 9.19396 10.3826C9.2197 10.372 9.2473 10.3665 9.27516 10.3666ZM9.18281 10.4355V10.72H9.23672V10.6066H9.28734C9.30797 10.6066 9.31266 10.615 9.31734 10.6309C9.31734 10.6333 9.32578 10.7073 9.32812 10.7209H9.38672C9.37928 10.6962 9.37472 10.6708 9.37313 10.645C9.36656 10.6084 9.36469 10.5831 9.32578 10.5808C9.34641 10.5738 9.38062 10.563 9.38062 10.5105C9.38062 10.435 9.315 10.4355 9.28078 10.4355H9.18281ZM9.23672 10.4809H9.28266C9.29672 10.4809 9.32391 10.4809 9.32391 10.5194C9.32391 10.5353 9.31688 10.5616 9.27984 10.5606H9.23672V10.4809ZM7.575 10.7134C7.19859 10.7134 6.975 10.8742 6.975 11.1386C6.975 11.4283 7.19906 11.5056 7.55953 11.5417C7.99078 11.5853 8.02453 11.6472 8.02453 11.7316C8.02453 11.8797 7.90547 11.9411 7.62703 11.9411C7.27781 11.9411 7.20141 11.8548 7.17609 11.6814C7.17375 11.6627 7.15734 11.6491 7.13672 11.6491H6.96516C6.96003 11.6491 6.95495 11.6501 6.95023 11.6521C6.9455 11.6541 6.94122 11.657 6.93764 11.6607C6.93406 11.6643 6.93125 11.6687 6.92937 11.6734C6.9275 11.6782 6.92659 11.6833 6.92672 11.6884C6.92672 11.9097 7.04766 12.1745 7.62469 12.1745C8.04797 12.1745 8.2875 12.0105 8.2875 11.7227C8.2875 11.4377 8.09531 11.3617 7.68937 11.3069C7.27875 11.252 7.23797 11.2244 7.23797 11.1283C7.23797 11.0486 7.27172 10.9441 7.57547 10.9441C7.84641 10.9441 7.94766 11.0036 7.98891 11.1859C7.99359 11.2047 8.00625 11.2155 8.02453 11.2155H8.19562C8.20687 11.2155 8.21672 11.2108 8.22328 11.2042C8.23031 11.1953 8.23453 11.1864 8.23266 11.1752C8.20547 10.8602 7.99734 10.7134 7.575 10.7134Z" fill="#E34972"/>
</svg>
