<svg width="15" height="15" viewBox="0 0 15 15" fill="none" xmlns="http://www.w3.org/2000/svg">
<path d="M6.93939 6.52375C6.74821 6.63414 6.59406 6.79874 6.49643 6.99674C6.39879 7.19473 6.36206 7.41724 6.39087 7.63611C6.41968 7.85498 6.51275 8.06039 6.6583 8.22638C6.80385 8.39236 6.99535 8.51146 7.20858 8.56861C7.42182 8.62577 7.64721 8.61841 7.85626 8.54747C8.06531 8.47653 8.24864 8.3452 8.38305 8.17008C8.51747 7.99496 8.59694 7.78391 8.61142 7.56363C8.6259 7.34334 8.57473 7.12371 8.46439 6.9325C8.39111 6.80551 8.29353 6.69421 8.17723 6.60494C8.06093 6.51567 7.92818 6.45018 7.78656 6.41223C7.64495 6.37427 7.49724 6.36458 7.35188 6.38372C7.20652 6.40285 7.06636 6.45044 6.93939 6.52375ZM11.9425 7.735C11.8692 7.65125 11.7919 7.56729 11.7106 7.48313C11.7673 7.42313 11.8223 7.36333 11.8756 7.30375C12.8788 6.17625 13.3025 5.045 12.91 4.36563C12.5338 3.71375 11.4144 3.51938 10.0125 3.79188C9.8746 3.81896 9.73731 3.84938 9.60064 3.88313C9.57439 3.79313 9.54668 3.70354 9.51752 3.61438C9.04189 2.18125 8.27377 1.24938 7.48877 1.25C6.73627 1.25 6.00877 2.12313 5.54439 3.47375C5.49856 3.60708 5.45627 3.74125 5.41752 3.87625C5.32627 3.85375 5.2346 3.83292 5.14252 3.81375C3.66377 3.51063 2.47314 3.71063 2.08127 4.39125C1.70564 5.04313 2.09814 6.11 3.03627 7.18625C3.1296 7.2925 3.22543 7.39667 3.32377 7.49875C3.20752 7.6175 3.09814 7.73688 2.99564 7.85563C2.08002 8.91688 1.71002 9.96563 2.08502 10.615C2.47252 11.2863 3.64627 11.5056 5.07564 11.2244C5.19148 11.2015 5.30668 11.1756 5.42127 11.1469C5.46293 11.2931 5.50898 11.4383 5.55939 11.5825C6.02189 12.9056 6.74502 13.75 7.49502 13.75C8.27002 13.75 9.04627 12.8419 9.51689 11.4631C9.55439 11.3544 9.58877 11.2413 9.62252 11.125C9.77043 11.1617 9.91939 11.1942 10.0694 11.2225C11.4463 11.4831 12.5394 11.2788 12.9138 10.6288C13.3006 9.95688 12.9013 8.83063 11.9425 7.735ZM2.54377 4.6575C2.78502 4.23875 3.75814 4.075 5.03502 4.3375C5.11668 4.35417 5.19981 4.37292 5.28439 4.39375C5.15958 4.94522 5.07147 5.50437 5.02064 6.0675C4.56018 6.39129 4.12113 6.74453 3.70627 7.125C3.61502 7.03042 3.52606 6.93354 3.43939 6.83438C2.63502 5.91313 2.31752 5.05063 2.54377 4.6575ZM4.97314 8.2375C4.65439 7.99563 4.35752 7.74813 4.08814 7.49938C4.35689 7.25188 4.65377 7.00563 4.97252 6.76438C4.96085 7.00979 4.95523 7.25542 4.95564 7.50125C4.95564 7.74708 4.96148 7.9925 4.97314 8.2375ZM4.97314 10.7C4.4314 10.8207 3.87209 10.8406 3.32314 10.7588C3.17265 10.747 3.02617 10.7045 2.89276 10.6338C2.75935 10.5632 2.64185 10.466 2.54752 10.3481C2.31939 9.95438 2.61689 9.11188 3.40002 8.20438C3.49835 8.09063 3.60002 7.97979 3.70502 7.87188C4.12007 8.25469 4.55999 8.60963 5.02189 8.93438C5.07322 9.50462 5.16217 10.0709 5.28814 10.6294C5.18398 10.6556 5.07877 10.6794 4.97252 10.7006L4.97314 10.7ZM9.41064 5.67563C9.20106 5.54354 8.98897 5.41583 8.77439 5.2925C8.56272 5.17083 8.34877 5.05354 8.13252 4.94063C8.48803 4.79047 8.85077 4.65802 9.21939 4.54375C9.30213 4.91759 9.36596 5.29536 9.41064 5.67563ZM6.05002 3.64688C6.44752 2.49063 7.03627 1.78438 7.49002 1.78438C7.97314 1.78375 8.60064 2.54563 9.01127 3.7825C9.03793 3.86333 9.06293 3.94458 9.08627 4.02625C8.54723 4.19331 8.01983 4.39583 7.50752 4.6325C6.99691 4.39293 6.47071 4.18809 5.93252 4.01938C5.96877 3.89438 6.00793 3.77021 6.05002 3.64688ZM5.80002 4.53688C6.16695 4.65236 6.52782 4.78628 6.88127 4.93813C6.44293 5.16396 6.01627 5.41 5.60127 5.67625C5.65127 5.2775 5.71814 4.89563 5.80002 4.53688ZM5.60189 9.32438C5.80898 9.45729 6.01918 9.585 6.23252 9.7075C6.45002 9.8325 6.67023 9.9525 6.89314 10.0675C6.53716 10.2246 6.17335 10.3633 5.80314 10.4831C5.71712 10.1006 5.64996 9.71411 5.60189 9.325V9.32438ZM9.01189 11.2906C8.84561 11.82 8.58333 12.3143 8.23814 12.7488C8.15291 12.8733 8.04305 12.979 7.91534 13.0595C7.78763 13.1399 7.64479 13.1932 7.49564 13.2162C7.04002 13.2162 6.45939 12.5381 6.06439 11.4062C6.01773 11.2725 5.97481 11.1375 5.93564 11.0013C6.47639 10.8268 7.00468 10.6159 7.51689 10.37C8.03355 10.6086 8.56532 10.813 9.10877 10.9819C9.07877 11.0856 9.04648 11.1885 9.01189 11.2906ZM9.23814 10.4631C8.86472 10.3465 8.4972 10.2118 8.13689 10.0594C8.34898 9.94813 8.56252 9.83042 8.77752 9.70625C8.99835 9.57875 9.21335 9.44813 9.42252 9.31438C9.38075 9.70019 9.31921 10.0836 9.23814 10.4631ZM9.51752 7.49875C9.51752 7.87833 9.50564 8.2575 9.48189 8.63625C9.17377 8.845 8.84877 9.04875 8.51064 9.24375C8.17314 9.43813 7.84002 9.61688 7.51252 9.77875C7.16793 9.61375 6.83002 9.43583 6.49877 9.245C6.1696 9.05542 5.84793 8.85354 5.53377 8.63938C5.5046 8.26021 5.49002 7.88063 5.49002 7.50063C5.49002 7.12104 5.50418 6.74167 5.53252 6.3625C6.1608 5.93355 6.8206 5.55267 7.50627 5.22313C7.84627 5.38854 8.18023 5.56583 8.50814 5.755C8.83731 5.94417 9.16023 6.14396 9.47689 6.35438C9.50398 6.73521 9.51752 7.11667 9.51752 7.49875ZM10.115 4.31563C11.3163 4.0825 12.2213 4.23938 12.4481 4.6325C12.69 5.05125 12.3438 5.975 11.4769 6.94875C11.429 7.0025 11.3794 7.05646 11.3281 7.11063C10.9059 6.72895 10.4582 6.37647 9.98814 6.05563C9.9408 5.49872 9.85624 4.94561 9.73502 4.4C9.86418 4.36833 9.99085 4.34021 10.115 4.31563ZM10.0338 6.74375C10.351 6.97528 10.656 7.22311 10.9475 7.48625C10.6573 7.75361 10.3534 8.00562 10.0369 8.24125C10.0465 7.99375 10.0513 7.74625 10.0513 7.49875C10.0513 7.24708 10.0454 6.99542 10.0338 6.74375ZM12.4519 10.3619C12.2244 10.7563 11.3469 10.9206 10.1688 10.6981C10.0338 10.6727 9.89543 10.6423 9.75377 10.6069C9.87206 10.0542 9.95287 9.49419 9.99564 8.93063C10.4649 8.60438 10.9112 8.24625 11.3313 7.85875C11.405 7.935 11.475 8.01083 11.5413 8.08625C11.9169 8.49473 12.2142 8.96889 12.4181 9.485C12.4834 9.62109 12.5201 9.76912 12.5259 9.91994C12.5317 10.0708 12.5065 10.2212 12.4519 10.3619Z" fill="#E34972"/>
</svg>
