<svg width="15" height="15" viewBox="0 0 15 15" fill="none" xmlns="http://www.w3.org/2000/svg">
<g clip-path="url(#clip0_103_35)">
<path d="M12.5 8V7.833C12.5 7.097 11.903 6.5 11.167 6.5H10C9.60218 6.5 9.22064 6.65804 8.93934 6.93934C8.65804 7.22064 8.5 7.60218 8.5 8C8.5 8.39782 8.65804 8.77936 8.93934 9.06066C9.22064 9.34196 9.60218 9.5 10 9.5H11C11.3978 9.5 11.7794 9.65804 12.0607 9.93934C12.342 10.2206 12.5 10.6022 12.5 11C12.5 11.3978 12.342 11.7794 12.0607 12.0607C11.7794 12.342 11.3978 12.5 11 12.5H10C9.60218 12.5 9.22064 12.342 8.93934 12.0607C8.65804 11.7794 8.5 11.3978 8.5 11M8 6.5H3M5.5 6.5V13M0.5 0.5H14.5V14.5H0.5V0.5Z" stroke="#E34972"/>
</g>
<defs>
<clipPath id="clip0_103_35">
<rect width="15" height="15" fill="white"/>
</clipPath>
</defs>
</svg>
