<?xml version="1.0" encoding="UTF-8"?>
<svg xmlns="http://www.w3.org/2000/svg" xmlns:xlink="http://www.w3.org/1999/xlink" viewBox="0 0 150 150" width="150px" height="150px">
<g id="surface21483581">
<rect x="0" y="0" width="150" height="150" style="fill:rgb(4.705882%,4.705882%,5.098039%);fill-opacity:1;stroke:none;"/>
<path style=" stroke:none;fill-rule:nonzero;fill:rgb(0%,0%,0%);fill-opacity:1;" d="M 37.5 68.75 L 34.375 68.75 L 34.375 67.1875 C 34.375 66.3125 35.0625 65.625 35.9375 65.625 C 36.8125 65.625 37.5 66.3125 37.5 67.1875 Z M 37.5 68.75 "/>
<path style=" stroke:none;fill-rule:nonzero;fill:rgb(100%,100%,100%);fill-opacity:1;" d="M 69.53125 65.625 C 69.25 65.625 69 65.6875 68.75 65.78125 C 67.84375 66.09375 67.1875 66.96875 67.1875 67.96875 L 67.1875 74.21875 C 67.1875 75.21875 67.84375 76.09375 68.75 76.40625 C 69 76.5 69.25 76.5625 69.53125 76.5625 C 70.8125 76.5625 71.875 75.5 71.875 74.21875 L 71.875 67.96875 C 71.875 66.6875 70.8125 65.625 69.53125 65.625 Z M 69.53125 65.625 C 69.25 65.625 69 65.6875 68.75 65.78125 C 67.84375 66.09375 67.1875 66.96875 67.1875 67.96875 L 67.1875 74.21875 C 67.1875 75.21875 67.84375 76.09375 68.75 76.40625 C 69 76.5 69.25 76.5625 69.53125 76.5625 C 70.8125 76.5625 71.875 75.5 71.875 74.21875 L 71.875 67.96875 C 71.875 66.6875 70.8125 65.625 69.53125 65.625 Z M 69.53125 65.625 C 69.25 65.625 69 65.6875 68.75 65.78125 C 67.84375 66.09375 67.1875 66.96875 67.1875 67.96875 L 67.1875 74.21875 C 67.1875 75.21875 67.84375 76.09375 68.75 76.40625 C 69 76.5 69.25 76.5625 69.53125 76.5625 C 70.8125 76.5625 71.875 75.5 71.875 74.21875 L 71.875 67.96875 C 71.875 66.6875 70.8125 65.625 69.53125 65.625 Z M 92.1875 65.625 C 91.3125 65.625 90.625 66.3125 90.625 67.1875 L 90.625 68.75 L 93.75 68.75 L 93.75 67.1875 C 93.75 66.3125 93.0625 65.625 92.1875 65.625 Z M 92.1875 65.625 C 91.3125 65.625 90.625 66.3125 90.625 67.1875 L 90.625 68.75 L 93.75 68.75 L 93.75 67.1875 C 93.75 66.3125 93.0625 65.625 92.1875 65.625 Z M 69.53125 65.625 C 69.25 65.625 69 65.6875 68.75 65.78125 C 67.84375 66.09375 67.1875 66.96875 67.1875 67.96875 L 67.1875 74.21875 C 67.1875 75.21875 67.84375 76.09375 68.75 76.40625 C 69 76.5 69.25 76.5625 69.53125 76.5625 C 70.8125 76.5625 71.875 75.5 71.875 74.21875 L 71.875 67.96875 C 71.875 66.6875 70.8125 65.625 69.53125 65.625 Z M 118.75 18.75 L 31.25 18.75 C 24.34375 18.75 18.75 24.34375 18.75 31.25 L 18.75 118.75 C 18.75 125.65625 24.34375 131.25 31.25 131.25 L 118.75 131.25 C 125.65625 131.25 131.25 125.65625 131.25 118.75 L 131.25 31.25 C 131.25 24.34375 125.65625 18.75 118.75 18.75 Z M 31.25 67.1875 C 31.25 64.59375 33.34375 62.5 35.9375 62.5 C 38.53125 62.5 40.625 64.59375 40.625 67.1875 L 40.625 71.875 L 34.375 71.875 L 34.375 75 C 34.375 75.875 35.0625 76.5625 35.9375 76.5625 C 36.8125 76.5625 37.5 75.875 37.5 75 L 40.625 75 C 40.625 77.59375 38.53125 79.6875 35.9375 79.6875 C 33.34375 79.6875 31.25 77.59375 31.25 75 Z M 75 74.625 C 75 77.40625 72.71875 79.6875 69.9375 79.6875 L 69.90625 79.6875 C 69.5 79.6875 69.125 79.65625 68.75 79.5625 C 68.1875 79.4375 67.65625 79.1875 67.1875 78.875 L 67.1875 85.9375 L 64.0625 85.9375 L 64.0625 62.5 L 67.1875 62.5 L 67.1875 63.3125 C 67.65625 63 68.1875 62.75 68.75 62.625 C 69.125 62.53125 69.5 62.5 69.90625 62.5 L 69.9375 62.5 C 72.71875 62.5 75 64.78125 75 67.5625 Z M 56.03125 66.65625 C 61.15625 81.8125 66.4375 102.15625 65.625 120.3125 L 60.9375 118.75 C 60.9375 118.75 58.96875 103.125 50.4375 73.375 C 44.84375 80.40625 39.1875 88.84375 34.375 98.4375 L 31.25 98.4375 C 31.25 98.4375 32.96875 88.96875 49.25 69.34375 C 47.25 62.53125 44.90625 55.03125 42.1875 46.875 L 46.875 43.75 C 46.875 43.75 50.59375 51.46875 54.71875 62.96875 C 59.4375 57.6875 65.09375 51.8125 71.875 45.3125 L 75 48.4375 C 75 48.4375 66.34375 54.9375 56.03125 66.65625 Z M 85.9375 65.71875 C 85.6875 65.65625 85.4375 65.625 85.15625 65.625 C 83.28125 65.625 81.59375 66.96875 81.25 68.75 L 81.25 79.6875 L 78.125 79.6875 L 78.125 62.5 L 81.25 62.5 L 81.25 64.6875 C 81.34375 64.5625 81.4375 64.4375 81.53125 64.34375 C 82.65625 63.1875 84.21875 62.5 85.9375 62.5 Z M 96.875 71.875 L 90.625 71.875 L 90.625 75 C 90.625 75.875 91.3125 76.5625 92.1875 76.5625 C 93.0625 76.5625 93.75 75.875 93.75 75 L 96.875 75 C 96.875 77.59375 94.78125 79.6875 92.1875 79.6875 C 89.59375 79.6875 87.5 77.59375 87.5 75 L 87.5 67.1875 C 87.5 64.59375 89.59375 62.5 92.1875 62.5 C 94.78125 62.5 96.875 64.59375 96.875 67.1875 Z M 108.125 76.59375 C 107.875 77.1875 107.53125 77.71875 107.09375 78.1875 C 106.625 78.65625 106.09375 79.03125 105.5 79.28125 C 104.875 79.5625 104.1875 79.6875 103.46875 79.6875 C 102.09375 79.6875 100.96875 79.25 100.03125 78.40625 C 99.5625 77.96875 99.1875 77.4375 98.90625 76.8125 C 98.625 76.1875 98.46875 75.46875 98.4375 74.625 L 101.625 74.625 C 101.6875 75.09375 101.84375 75.5 102.09375 75.90625 C 102.34375 76.3125 102.8125 76.5 103.4375 76.5 C 103.9375 76.5 104.34375 76.34375 104.75 76.03125 C 105.125 75.71875 105.3125 75.25 105.3125 74.6875 C 105.3125 74.21875 105.21875 73.8125 104.96875 73.5 C 104.71875 73.15625 104.28125 72.875 103.625 72.625 L 102 72.03125 C 100.96875 71.625 100.125 71.0625 99.5 70.25 C 98.90625 69.46875 98.59375 68.53125 98.59375 67.40625 C 98.59375 66.6875 98.75 66.03125 99 65.4375 C 99.25 64.8125 99.625 64.3125 100.09375 63.84375 C 100.53125 63.40625 101.0625 63.09375 101.65625 62.84375 C 102.25 62.625 102.875 62.5 103.5625 62.5 C 104.25 62.5 104.875 62.625 105.46875 62.875 C 106.0625 63.09375 106.5625 63.4375 106.96875 63.90625 C 107.40625 64.34375 107.71875 64.84375 107.96875 65.46875 C 108.21875 66.0625 108.34375 66.71875 108.34375 67.40625 L 105.15625 67.40625 C 105.125 66.8125 104.96875 66.40625 104.625 66.09375 C 104.28125 65.8125 103.875 65.6875 103.4375 65.6875 C 102.90625 65.6875 102.5 65.84375 102.21875 66.1875 C 101.9375 66.53125 101.78125 66.9375 101.78125 67.375 C 101.78125 67.6875 101.84375 67.96875 102 68.28125 C 102.15625 68.5625 102.5625 68.84375 103.21875 69.09375 L 105.1875 69.875 C 106.4375 70.375 107.3125 71.03125 107.78125 71.875 C 108.28125 72.71875 108.5 73.625 108.5 74.625 C 108.5 75.3125 108.375 76 108.125 76.59375 Z M 119.9375 76.59375 C 119.6875 77.1875 119.34375 77.71875 118.875 78.1875 C 118.4375 78.65625 117.90625 79.03125 117.3125 79.28125 C 116.6875 79.5625 116 79.6875 115.28125 79.6875 C 113.90625 79.6875 112.75 79.25 111.84375 78.40625 C 111.375 77.96875 111 77.4375 110.71875 76.8125 C 110.40625 76.1875 110.25 75.46875 110.25 74.625 L 113.4375 74.625 C 113.5 75.09375 113.65625 75.5 113.90625 75.90625 C 114.15625 76.3125 114.59375 76.5 115.25 76.5 C 115.71875 76.5 116.15625 76.34375 116.5625 76.03125 C 116.9375 75.71875 117.125 75.25 117.125 74.6875 C 117.125 74.21875 117 73.8125 116.78125 73.5 C 116.53125 73.15625 116.09375 72.875 115.4375 72.625 L 113.8125 72.03125 C 112.75 71.625 111.9375 71.0625 111.3125 70.25 C 110.71875 69.46875 110.40625 68.53125 110.40625 67.40625 C 110.40625 66.6875 110.53125 66.03125 110.8125 65.4375 C 111.0625 64.8125 111.4375 64.3125 111.90625 63.84375 C 112.34375 63.40625 112.875 63.09375 113.46875 62.84375 C 114.0625 62.625 114.6875 62.5 115.375 62.5 C 116.0625 62.5 116.6875 62.625 117.28125 62.875 C 117.875 63.09375 118.375 63.4375 118.78125 63.90625 C 119.21875 64.34375 119.53125 64.84375 119.78125 65.46875 C 120.03125 66.0625 120.15625 66.71875 120.15625 67.40625 L 116.96875 67.40625 C 116.9375 66.8125 116.75 66.40625 116.4375 66.09375 C 116.09375 65.8125 115.6875 65.6875 115.25 65.6875 C 114.71875 65.6875 114.3125 65.84375 114.03125 66.1875 C 113.71875 66.53125 113.59375 66.9375 113.59375 67.375 C 113.59375 67.6875 113.65625 67.96875 113.8125 68.28125 C 113.96875 68.5625 114.375 68.84375 115 69.09375 L 117 69.875 C 118.25 70.375 119.125 71.03125 119.59375 71.875 C 120.0625 72.71875 120.3125 73.625 120.3125 74.625 C 120.3125 75.3125 120.1875 76 119.9375 76.59375 Z M 92.1875 65.625 C 91.3125 65.625 90.625 66.3125 90.625 67.1875 L 90.625 68.75 L 93.75 68.75 L 93.75 67.1875 C 93.75 66.3125 93.0625 65.625 92.1875 65.625 Z M 69.53125 65.625 C 69.25 65.625 69 65.6875 68.75 65.78125 C 67.84375 66.09375 67.1875 66.96875 67.1875 67.96875 L 67.1875 74.21875 C 67.1875 75.21875 67.84375 76.09375 68.75 76.40625 C 69 76.5 69.25 76.5625 69.53125 76.5625 C 70.8125 76.5625 71.875 75.5 71.875 74.21875 L 71.875 67.96875 C 71.875 66.6875 70.8125 65.625 69.53125 65.625 Z M 69.53125 65.625 C 69.25 65.625 69 65.6875 68.75 65.78125 C 67.84375 66.09375 67.1875 66.96875 67.1875 67.96875 L 67.1875 74.21875 C 67.1875 75.21875 67.84375 76.09375 68.75 76.40625 C 69 76.5 69.25 76.5625 69.53125 76.5625 C 70.8125 76.5625 71.875 75.5 71.875 74.21875 L 71.875 67.96875 C 71.875 66.6875 70.8125 65.625 69.53125 65.625 Z M 92.1875 65.625 C 91.3125 65.625 90.625 66.3125 90.625 67.1875 L 90.625 68.75 L 93.75 68.75 L 93.75 67.1875 C 93.75 66.3125 93.0625 65.625 92.1875 65.625 Z M 92.1875 65.625 C 91.3125 65.625 90.625 66.3125 90.625 67.1875 L 90.625 68.75 L 93.75 68.75 L 93.75 67.1875 C 93.75 66.3125 93.0625 65.625 92.1875 65.625 Z M 69.53125 65.625 C 69.25 65.625 69 65.6875 68.75 65.78125 C 67.84375 66.09375 67.1875 66.96875 67.1875 67.96875 L 67.1875 74.21875 C 67.1875 75.21875 67.84375 76.09375 68.75 76.40625 C 69 76.5 69.25 76.5625 69.53125 76.5625 C 70.8125 76.5625 71.875 75.5 71.875 74.21875 L 71.875 67.96875 C 71.875 66.6875 70.8125 65.625 69.53125 65.625 Z M 69.53125 65.625 C 69.25 65.625 69 65.6875 68.75 65.78125 C 67.84375 66.09375 67.1875 66.96875 67.1875 67.96875 L 67.1875 74.21875 C 67.1875 75.21875 67.84375 76.09375 68.75 76.40625 C 69 76.5 69.25 76.5625 69.53125 76.5625 C 70.8125 76.5625 71.875 75.5 71.875 74.21875 L 71.875 67.96875 C 71.875 66.6875 70.8125 65.625 69.53125 65.625 Z M 69.53125 65.625 C 69.25 65.625 69 65.6875 68.75 65.78125 C 67.84375 66.09375 67.1875 66.96875 67.1875 67.96875 L 67.1875 74.21875 C 67.1875 75.21875 67.84375 76.09375 68.75 76.40625 C 69 76.5 69.25 76.5625 69.53125 76.5625 C 70.8125 76.5625 71.875 75.5 71.875 74.21875 L 71.875 67.96875 C 71.875 66.6875 70.8125 65.625 69.53125 65.625 Z M 69.53125 65.625 "/>
</g>
</svg>
