<svg id="visual" viewBox="0 0 1400 600" width="1400" height="600" xmlns="http://www.w3.org/2000/svg" xmlns:xlink="http://www.w3.org/1999/xlink" version="1.1"><path d="M0 417L33.3 414.2C66.7 411.3 133.3 405.7 200 408.5C266.7 411.3 333.3 422.7 400 442C466.7 461.3 533.3 488.7 600 483.2C666.7 477.7 733.3 439.3 800 438.8C866.7 438.3 933.3 475.7 1000 490.2C1066.7 504.7 1133.3 496.3 1200 477.3C1266.7 458.3 1333.3 428.7 1366.7 413.8L1400 399L1400 601L1366.7 601C1333.3 601 1266.7 601 1200 601C1133.3 601 1066.7 601 1000 601C933.3 601 866.7 601 800 601C733.3 601 666.7 601 600 601C533.3 601 466.7 601 400 601C333.3 601 266.7 601 200 601C133.3 601 66.7 601 33.3 601L0 601Z" fill="#f7f8fc" stroke-linecap="round" stroke-linejoin="miter"></path></svg>