<svg id="visual" viewBox="0 0 1400 600" width="1400" height="600" xmlns="http://www.w3.org/2000/svg" xmlns:xlink="http://www.w3.org/1999/xlink" version="1.1"><path d="M0 226L33.3 223.5C66.7 221 133.3 216 200 222.7C266.7 229.3 333.3 247.7 400 262C466.7 276.3 533.3 286.7 600 280.8C666.7 275 733.3 253 800 213.8C866.7 174.7 933.3 118.3 1000 104C1066.7 89.7 1133.3 117.3 1200 116.5C1266.7 115.7 1333.3 86.3 1366.7 71.7L1400 57L1400 0L1366.7 0C1333.3 0 1266.7 0 1200 0C1133.3 0 1066.7 0 1000 0C933.3 0 866.7 0 800 0C733.3 0 666.7 0 600 0C533.3 0 466.7 0 400 0C333.3 0 266.7 0 200 0C133.3 0 66.7 0 33.3 0L0 0Z" fill="#f7f8fc" stroke-linecap="round" stroke-linejoin="miter"></path></svg>